<svg width="159" height="21" viewBox="0 0 159 21" fill="none" xmlns="http://www.w3.org/2000/svg">
<path d="M0.795455 3.66335V1.45455H12.4006V3.66335H7.90483V16H5.29119V3.66335H0.795455ZM13.3913 16V5.09091H15.8842V6.90909H15.9979C16.1967 6.27936 16.5376 5.79403 17.0206 5.45312C17.5083 5.10748 18.0646 4.93466 18.6896 4.93466C18.8317 4.93466 18.9903 4.94176 19.1655 4.95597C19.3454 4.96544 19.4946 4.98201 19.6129 5.00568V7.37074C19.504 7.33286 19.3312 7.29972 19.0945 7.27131C18.8625 7.23816 18.6375 7.22159 18.4197 7.22159C17.951 7.22159 17.5296 7.32339 17.1555 7.52699C16.7862 7.72585 16.495 8.00284 16.282 8.35795C16.0689 8.71307 15.9624 9.12263 15.9624 9.58665V16H13.3913ZM25.7013 16.2131C24.6076 16.2131 23.663 15.9858 22.8675 15.5312C22.0768 15.072 21.4684 14.4233 21.0423 13.5852C20.6161 12.7424 20.4031 11.7505 20.4031 10.6094C20.4031 9.48722 20.6161 8.50237 21.0423 7.65483C21.4731 6.80256 22.0745 6.13968 22.8462 5.66619C23.618 5.18797 24.5247 4.94886 25.5664 4.94886C26.2388 4.94886 26.8732 5.05777 27.4698 5.27557C28.0711 5.48864 28.6014 5.82008 29.0607 6.26989C29.5247 6.7197 29.8893 7.29261 30.1545 7.98864C30.4196 8.67992 30.5522 9.50379 30.5522 10.4602V11.2486H21.6104V9.51562H28.0877C28.083 9.0232 27.9764 8.58523 27.7681 8.2017C27.5598 7.81345 27.2686 7.50805 26.8945 7.28551C26.5252 7.06297 26.0943 6.9517 25.6019 6.9517C25.0763 6.9517 24.6147 7.07955 24.217 7.33523C23.8192 7.58617 23.5091 7.91761 23.2866 8.32955C23.0688 8.73674 22.9575 9.18419 22.9528 9.67188V11.1847C22.9528 11.8191 23.0688 12.3636 23.3008 12.8182C23.5328 13.268 23.8571 13.6136 24.2738 13.8551C24.6905 14.0919 25.1781 14.2102 25.7369 14.2102C26.1109 14.2102 26.4495 14.1581 26.7525 14.054C27.0555 13.9451 27.3183 13.7865 27.5408 13.5781C27.7634 13.3698 27.9315 13.1117 28.0451 12.804L30.4457 13.0739C30.2942 13.7083 30.0053 14.2623 29.5792 14.7358C29.1578 15.2045 28.618 15.5691 27.9599 15.8295C27.3017 16.0852 26.5489 16.2131 25.7013 16.2131ZM35.2983 9.60795V16H32.7273V5.09091H35.1847V6.9446H35.3125C35.5634 6.33381 35.9635 5.84848 36.5128 5.48864C37.0668 5.12879 37.7509 4.94886 38.5653 4.94886C39.3182 4.94886 39.974 5.10985 40.5327 5.43182C41.0961 5.75379 41.5317 6.22017 41.8395 6.83097C42.152 7.44176 42.3059 8.18276 42.3011 9.05398V16H39.7301V9.4517C39.7301 8.72254 39.5407 8.15199 39.1619 7.74006C38.7879 7.32812 38.2694 7.12216 37.6065 7.12216C37.1567 7.12216 36.7566 7.22159 36.4062 7.42045C36.0606 7.61458 35.7884 7.89631 35.5895 8.26562C35.3954 8.63494 35.2983 9.08239 35.2983 9.60795ZM48.9631 16.1918C48.1061 16.1918 47.339 15.9716 46.6619 15.5312C45.9848 15.0909 45.4498 14.4517 45.0568 13.6136C44.6638 12.7756 44.4673 11.7576 44.4673 10.5597C44.4673 9.34754 44.6662 8.32481 45.0639 7.49148C45.4664 6.65341 46.0085 6.02131 46.6903 5.59517C47.3722 5.1643 48.1321 4.94886 48.9702 4.94886C49.6094 4.94886 50.1349 5.05777 50.5469 5.27557C50.9588 5.48864 51.2855 5.74669 51.527 6.04972C51.7685 6.34801 51.9555 6.62973 52.0881 6.89489H52.1946V1.45455H54.7727V16H52.2443V14.2812H52.0881C51.9555 14.5464 51.7637 14.8281 51.5128 15.1264C51.2618 15.42 50.9304 15.6709 50.5185 15.8793C50.1065 16.0876 49.5881 16.1918 48.9631 16.1918ZM49.6804 14.0824C50.2249 14.0824 50.6889 13.9356 51.0724 13.642C51.456 13.3437 51.7472 12.9295 51.946 12.3991C52.1449 11.8688 52.2443 11.2509 52.2443 10.5455C52.2443 9.83996 52.1449 9.2268 51.946 8.70597C51.7519 8.18513 51.4631 7.7803 51.0795 7.49148C50.7008 7.20265 50.2344 7.05824 49.6804 7.05824C49.1075 7.05824 48.6293 7.20739 48.2457 7.50568C47.8622 7.80398 47.5734 8.21591 47.3793 8.74148C47.1851 9.26705 47.0881 9.86837 47.0881 10.5455C47.0881 11.2273 47.1851 11.8357 47.3793 12.3707C47.5781 12.901 47.8693 13.3201 48.2528 13.6278C48.6411 13.9309 49.117 14.0824 49.6804 14.0824ZM57.5124 16V5.09091H60.0835V16H57.5124ZM58.805 3.54261C58.3978 3.54261 58.0475 3.40767 57.7539 3.13778C57.4603 2.86316 57.3136 2.53409 57.3136 2.15057C57.3136 1.76231 57.4603 1.43324 57.7539 1.16335C58.0475 0.88873 58.3978 0.75142 58.805 0.75142C59.217 0.75142 59.5674 0.88873 59.8562 1.16335C60.1497 1.43324 60.2965 1.76231 60.2965 2.15057C60.2965 2.53409 60.1497 2.86316 59.8562 3.13778C59.5674 3.40767 59.217 3.54261 58.805 3.54261ZM65.2983 9.60795V16H62.7273V5.09091H65.1847V6.9446H65.3125C65.5634 6.33381 65.9635 5.84848 66.5128 5.48864C67.0668 5.12879 67.7509 4.94886 68.5653 4.94886C69.3182 4.94886 69.974 5.10985 70.5327 5.43182C71.0961 5.75379 71.5317 6.22017 71.8395 6.83097C72.152 7.44176 72.3059 8.18276 72.3011 9.05398V16H69.7301V9.4517C69.7301 8.72254 69.5407 8.15199 69.1619 7.74006C68.7879 7.32812 68.2694 7.12216 67.6065 7.12216C67.1567 7.12216 66.7566 7.22159 66.4062 7.42045C66.0606 7.61458 65.7884 7.89631 65.5895 8.26562C65.3954 8.63494 65.2983 9.08239 65.2983 9.60795ZM79.6591 20.3182C78.7358 20.3182 77.9427 20.1927 77.2798 19.9418C76.617 19.6955 76.0843 19.3641 75.6818 18.9474C75.2794 18.5308 75 18.0691 74.8438 17.5625L77.1591 17.0014C77.2633 17.2145 77.4148 17.4252 77.6136 17.6335C77.8125 17.8466 78.08 18.0218 78.4162 18.1591C78.7571 18.3011 79.1856 18.3722 79.7017 18.3722C80.4309 18.3722 81.0346 18.1946 81.5128 17.8395C81.991 17.4891 82.2301 16.9115 82.2301 16.1065V14.0398H82.1023C81.9697 14.3049 81.7756 14.5772 81.5199 14.8565C81.2689 15.1359 80.9351 15.3703 80.5185 15.5597C80.1065 15.7491 79.5881 15.8438 78.9631 15.8438C78.125 15.8438 77.3651 15.6473 76.6832 15.2543C76.0062 14.8565 75.4664 14.2647 75.0639 13.4787C74.6662 12.688 74.4673 11.6984 74.4673 10.5099C74.4673 9.31203 74.6662 8.30114 75.0639 7.47727C75.4664 6.64867 76.0085 6.02131 76.6903 5.59517C77.3722 5.1643 78.1321 4.94886 78.9702 4.94886C79.6094 4.94886 80.1349 5.05777 80.5469 5.27557C80.9635 5.48864 81.295 5.74669 81.5412 6.04972C81.7874 6.34801 81.9744 6.62973 82.1023 6.89489H82.2443V5.09091H84.7798V16.1776C84.7798 17.1103 84.5573 17.8821 84.1122 18.4929C83.6671 19.1037 83.0587 19.5606 82.2869 19.8636C81.5152 20.1667 80.6392 20.3182 79.6591 20.3182ZM79.6804 13.8267C80.2249 13.8267 80.6889 13.6941 81.0724 13.429C81.456 13.1638 81.7472 12.7827 81.946 12.2855C82.1449 11.7884 82.2443 11.1918 82.2443 10.4957C82.2443 9.80919 82.1449 9.20786 81.946 8.69176C81.7519 8.17566 81.4631 7.77557 81.0795 7.49148C80.7008 7.20265 80.2344 7.05824 79.6804 7.05824C79.1075 7.05824 78.6293 7.20739 78.2457 7.50568C77.8622 7.80398 77.5734 8.21354 77.3793 8.73438C77.1851 9.25047 77.0881 9.83759 77.0881 10.4957C77.0881 11.1634 77.1851 11.7481 77.3793 12.25C77.5781 12.7472 77.8693 13.1354 78.2528 13.4148C78.6411 13.6894 79.117 13.8267 79.6804 13.8267ZM92.4893 16V1.45455H98.0575C99.1087 1.45455 99.9822 1.62026 100.678 1.9517C101.379 2.27841 101.902 2.72585 102.248 3.29403C102.598 3.86222 102.773 4.50616 102.773 5.22585C102.773 5.81771 102.66 6.32434 102.433 6.74574C102.205 7.1624 101.9 7.50095 101.516 7.76136C101.133 8.02178 100.704 8.20881 100.231 8.32244V8.46449C100.747 8.4929 101.242 8.65151 101.715 8.94034C102.193 9.22443 102.584 9.62689 102.887 10.1477C103.19 10.6686 103.342 11.2983 103.342 12.0369C103.342 12.7898 103.159 13.4669 102.795 14.0682C102.43 14.6648 101.881 15.1359 101.147 15.4815C100.413 15.8272 99.4898 16 98.3771 16H92.4893ZM95.1243 13.7983H97.9581C98.9145 13.7983 99.6035 13.616 100.025 13.2514C100.451 12.8821 100.664 12.4086 100.664 11.831C100.664 11.4001 100.558 11.0118 100.344 10.6662C100.131 10.3158 99.8284 10.0412 99.4354 9.84233C99.0424 9.63873 98.5736 9.53693 98.0291 9.53693H95.1243V13.7983ZM95.1243 7.64062H97.7308C98.1854 7.64062 98.5949 7.55777 98.9595 7.39205C99.3241 7.22159 99.6106 6.98248 99.8189 6.67472C100.032 6.36222 100.138 5.9929 100.138 5.56676C100.138 5.00331 99.9396 4.5393 99.5419 4.17472C99.1489 3.81013 98.5642 3.62784 97.7876 3.62784H95.1243V7.64062ZM105.52 16V5.09091H108.013V6.90909H108.127C108.326 6.27936 108.667 5.79403 109.15 5.45312C109.637 5.10748 110.194 4.93466 110.819 4.93466C110.961 4.93466 111.119 4.94176 111.294 4.95597C111.474 4.96544 111.623 4.98201 111.742 5.00568V7.37074C111.633 7.33286 111.46 7.29972 111.223 7.27131C110.991 7.23816 110.766 7.22159 110.549 7.22159C110.08 7.22159 109.658 7.32339 109.284 7.52699C108.915 7.72585 108.624 8.00284 108.411 8.35795C108.198 8.71307 108.091 9.12263 108.091 9.58665V16H105.52ZM116.394 16.2202C115.703 16.2202 115.08 16.0971 114.526 15.8509C113.977 15.5999 113.541 15.2306 113.219 14.7429C112.902 14.2552 112.743 13.6539 112.743 12.9389C112.743 12.3234 112.857 11.8144 113.084 11.4119C113.311 11.0095 113.622 10.6875 114.015 10.446C114.408 10.2045 114.85 10.0223 115.343 9.89915C115.84 9.77131 116.354 9.67898 116.884 9.62216C117.523 9.55587 118.042 9.49669 118.439 9.4446C118.837 9.38778 119.126 9.30256 119.306 9.18892C119.49 9.07055 119.583 8.88826 119.583 8.64205V8.59943C119.583 8.06439 119.424 7.65009 119.107 7.35653C118.79 7.06297 118.333 6.91619 117.736 6.91619C117.106 6.91619 116.607 7.0535 116.238 7.32812C115.873 7.60275 115.627 7.92708 115.499 8.30114L113.098 7.96023C113.288 7.29735 113.6 6.74337 114.036 6.2983C114.471 5.84848 115.004 5.51231 115.634 5.28977C116.264 5.0625 116.96 4.94886 117.722 4.94886C118.248 4.94886 118.771 5.01042 119.292 5.13352C119.812 5.25663 120.288 5.46023 120.719 5.74432C121.15 6.02367 121.496 6.40483 121.756 6.88778C122.021 7.37074 122.154 7.97443 122.154 8.69886V16H119.682V14.5014H119.597C119.441 14.8045 119.221 15.0885 118.936 15.3537C118.657 15.6141 118.304 15.8248 117.878 15.9858C117.457 16.142 116.962 16.2202 116.394 16.2202ZM117.061 14.331C117.578 14.331 118.025 14.2292 118.404 14.0256C118.783 13.8172 119.074 13.5426 119.277 13.2017C119.486 12.8608 119.59 12.4891 119.59 12.0866V10.8011C119.509 10.8674 119.372 10.929 119.178 10.9858C118.989 11.0426 118.775 11.0923 118.539 11.1349C118.302 11.1776 118.068 11.2154 117.836 11.2486C117.604 11.2817 117.402 11.3101 117.232 11.3338C116.848 11.3859 116.505 11.4711 116.202 11.5895C115.899 11.7079 115.66 11.8736 115.485 12.0866C115.31 12.295 115.222 12.5649 115.222 12.8963C115.222 13.3698 115.395 13.7273 115.74 13.9688C116.086 14.2102 116.526 14.331 117.061 14.331ZM127.31 9.60795V16H124.739V5.09091H127.196V6.9446H127.324C127.575 6.33381 127.975 5.84848 128.525 5.48864C129.078 5.12879 129.763 4.94886 130.577 4.94886C131.33 4.94886 131.986 5.10985 132.544 5.43182C133.108 5.75379 133.543 6.22017 133.851 6.83097C134.164 7.44176 134.318 8.18276 134.313 9.05398V16H131.742V9.4517C131.742 8.72254 131.552 8.15199 131.174 7.74006C130.8 7.32812 130.281 7.12216 129.618 7.12216C129.168 7.12216 128.768 7.22159 128.418 7.42045C128.072 7.61458 127.8 7.89631 127.601 8.26562C127.407 8.63494 127.31 9.08239 127.31 9.60795ZM140.975 16.1918C140.118 16.1918 139.351 15.9716 138.674 15.5312C137.997 15.0909 137.462 14.4517 137.069 13.6136C136.676 12.7756 136.479 11.7576 136.479 10.5597C136.479 9.34754 136.678 8.32481 137.076 7.49148C137.478 6.65341 138.02 6.02131 138.702 5.59517C139.384 5.1643 140.144 4.94886 140.982 4.94886C141.621 4.94886 142.147 5.05777 142.559 5.27557C142.971 5.48864 143.297 5.74669 143.539 6.04972C143.78 6.34801 143.967 6.62973 144.1 6.89489H144.206V1.45455H146.784V16H144.256V14.2812H144.1C143.967 14.5464 143.775 14.8281 143.525 15.1264C143.274 15.42 142.942 15.6709 142.53 15.8793C142.118 16.0876 141.6 16.1918 140.975 16.1918ZM141.692 14.0824C142.237 14.0824 142.701 13.9356 143.084 13.642C143.468 13.3437 143.759 12.9295 143.958 12.3991C144.157 11.8688 144.256 11.2509 144.256 10.5455C144.256 9.83996 144.157 9.2268 143.958 8.70597C143.764 8.18513 143.475 7.7803 143.091 7.49148C142.712 7.20265 142.246 7.05824 141.692 7.05824C141.119 7.05824 140.641 7.20739 140.257 7.50568C139.874 7.80398 139.585 8.21591 139.391 8.74148C139.197 9.26705 139.1 9.86837 139.1 10.5455C139.1 11.2273 139.197 11.8357 139.391 12.3707C139.59 12.901 139.881 13.3201 140.265 13.6278C140.653 13.9309 141.129 14.0824 141.692 14.0824ZM158.146 7.97443L155.803 8.23011C155.736 7.99337 155.62 7.77083 155.455 7.5625C155.294 7.35417 155.076 7.18608 154.801 7.05824C154.527 6.9304 154.19 6.86648 153.793 6.86648C153.258 6.86648 152.808 6.98248 152.443 7.21449C152.083 7.4465 151.906 7.74716 151.911 8.11648C151.906 8.43371 152.022 8.69176 152.259 8.89062C152.5 9.08949 152.898 9.25284 153.452 9.38068L155.312 9.77841C156.345 10.0009 157.112 10.3537 157.614 10.8366C158.12 11.3196 158.376 11.9517 158.381 12.733C158.376 13.4195 158.175 14.0256 157.777 14.5511C157.384 15.072 156.837 15.4792 156.136 15.7727C155.436 16.0663 154.631 16.2131 153.722 16.2131C152.386 16.2131 151.312 15.9337 150.497 15.375C149.683 14.8116 149.197 14.0279 149.041 13.0241L151.548 12.7827C151.662 13.2751 151.903 13.6468 152.273 13.8977C152.642 14.1487 153.123 14.2741 153.714 14.2741C154.325 14.2741 154.815 14.1487 155.185 13.8977C155.559 13.6468 155.746 13.3366 155.746 12.9673C155.746 12.6548 155.625 12.3968 155.384 12.1932C155.147 11.9896 154.777 11.8333 154.276 11.7244L152.415 11.3338C151.368 11.116 150.594 10.7491 150.092 10.233C149.59 9.71212 149.342 9.05398 149.347 8.25852C149.342 7.58617 149.524 7.00379 149.893 6.51136C150.268 6.0142 150.786 5.63068 151.449 5.3608C152.116 5.08617 152.886 4.94886 153.757 4.94886C155.036 4.94886 156.042 5.22112 156.776 5.76562C157.514 6.31013 157.971 7.0464 158.146 7.97443Z" fill="#141718"/>
</svg>
